<?xml version="1.0" standalone="no"?>
<!DOCTYPE svg PUBLIC "-//W3C//DTD SVG 1.1//EN" "http://www.w3.org/Graphics/SVG/1.1/DTD/svg11.dtd" >
<svg xmlns="http://www.w3.org/2000/svg" xmlns:xlink="http://www.w3.org/1999/xlink" version="1.1">
<metadata></metadata>
<defs>
<font id="04b08regular" horiz-adv-x="900" >
<font-face units-per-em="1200" ascent="900" descent="-300" />
<missing-glyph horiz-adv-x="600" />
<glyph horiz-adv-x="0" />
<glyph unicode="&#xd;" horiz-adv-x="600" />
<glyph unicode=" "  horiz-adv-x="600" />
<glyph unicode="&#x09;" horiz-adv-x="600" />
<glyph unicode="&#xa0;" horiz-adv-x="600" />
<glyph unicode="!" horiz-adv-x="600" d="M150 750v-450h150v450h-150zM150 0h150v150h-150v-150z" />
<glyph unicode="&#x22;" horiz-adv-x="600" d="M0 450h150v300h-150v-300zM300 450h150v300h-150v-300z" />
<glyph unicode="#" d="M150 0h150v150h150v-150h150v150h150v150h-150v150h150v150h-150v150h-150v-150h-150v150h-150v-150h-150v-150h150v-150h-150v-150h150v-150zM300 450h150v-150h-150v150z" />
<glyph unicode="$" d="M750 0v450h-300v150h300v150h-750v-450h300v-150h-300v-150h750zM150 450v150h150v-150h-150zM450 300h150v-150h-150v150z" />
<glyph unicode="%" d="M300 750h-300v-300h300v300zM600 600h-150v-150h150v150zM750 750h-150v-150h150v150zM150 150h150v150h-150v-150zM300 450v-150h150v150h-150zM0 0h150v150h-150v-150zM450 0h300v300h-300v-300z" />
<glyph unicode="&#x26;" horiz-adv-x="1050" d="M450 451v149h-300v-149h300zM450 299h-300v-149h300v149zM900 0h-150v150h-150v-150h-600v300h150v150h-150v300h600v-300h-150v-150h300v150h150v-150h-150v-150h150v-150z" />
<glyph unicode="'" horiz-adv-x="300" d="M150 750h-150v-300h150v300z" />
<glyph unicode="(" horiz-adv-x="450" d="M150 600h150v150h-150v-150zM0 150h150v450h-150v-450zM300 0v150h-150v-150h150z" />
<glyph unicode=")" horiz-adv-x="450" d="M0 750v-150h150v150h-150zM150 150h150v450h-150v-450zM0 0h150v150h-150v-150z" />
<glyph unicode="*" horiz-adv-x="600" d="M150 600v150h-150v-150h150zM300 450v150h-150v-150h150zM450 600v150h-150v-150h150zM150 300v150h-150v-150h150zM450 300v150h-150v-150h150z" />
<glyph unicode="+" d="M750 450h-300v300h-150v-300h-300v-150h300v-300h150v300h300v150z" />
<glyph unicode="," horiz-adv-x="300" d="M0 0h150v300h-150v-300z" />
<glyph unicode="-" d="M750 300v150h-750v-150h750z" />
<glyph unicode="." horiz-adv-x="300" d="M0 0h150v150h-150v-150z" />
<glyph unicode="/" d="M450 450h150v150h-150v-150zM750 750h-150v-150h150v150zM150 150h150v150h-150v-150zM300 300h150v150h-150v-150zM0 0h150v150h-150v-150z" />
<glyph unicode="0" d="M600 151v448h-450v-448h450zM150 150h-150v450h150v150h450v-150h150v-450h-150v-150h-450v150z" />
<glyph unicode="1" horiz-adv-x="600" d="M300 150v600h-300v-150h150v-450h-150v-150h450v150h-150z" />
<glyph unicode="2" d="M0 750v-150h600v-150h-600v-450h750v150h-600v150h600v450h-750z" />
<glyph unicode="3" d="M0 750v-150h600v-150h-600v-150h600v-150h-600v-150h750v750h-750z" />
<glyph unicode="4" d="M300 599v-150h-150v-149h300v299h-150zM600 300h150v-150h-150v-150h-150v150h-450v300h150v150h150v150h300v-450z" />
<glyph unicode="5" d="M750 600v150h-750v-450h600v-150h-600v-150h750v450h-600v150h600z" />
<glyph unicode="6" d="M750 600v150h-750v-750h750v450h-600v150h600zM600 300v-150h-450v150h450z" />
<glyph unicode="7" d="M0 750v-150h600v-150h150v300h-750zM300 150h150v150h-150v-150zM450 300h150v150h-150v-150zM150 0h150v150h-150v-150z" />
<glyph unicode="8" d="M0 750v-750h750v750h-750zM600 150h-450v150h450v-150zM600 450h-450v150h450v-150z" />
<glyph unicode="9" d="M0 750v-450h600v-150h-600v-150h750v750h-750zM600 450h-450v150h450v-150z" />
<glyph unicode=":" horiz-adv-x="300" d="M150 450v150h-150v-150h150zM150 150v150h-150v-150h150z" />
<glyph unicode=";" horiz-adv-x="300" d="M150 600h-150v-150h150v150zM150 300h-150v-300h150v300z" />
<glyph unicode="&#x3c;" horiz-adv-x="600" d="M150 450h150v150h-150v-150zM300 600h150v150h-150v-150zM0 300h150v150h-150v-150zM300 150v150h-150v-150h150zM450 0v150h-150v-150h150z" />
<glyph unicode="=" d="M750 450v150h-750v-150h750zM750 150v150h-750v-150h750z" />
<glyph unicode="&#x3e;" horiz-adv-x="600" d="M0 750v-150h150v150h-150zM150 600v-150h150v150h-150zM150 150h150v150h-150v-150zM300 300h150v150h-150v-150zM0 0h150v150h-150v-150z" />
<glyph unicode="?" d="M750 750h-750v-150h600v-150h-300v-150h450v450zM300 0h150v150h-150v-150z" />
<glyph unicode="@" d="M750 750h-750v-750h750v750zM150 150v450h450v-150h-300v-300h-150zM450 150v150h150v-150h-150z" />
<glyph unicode="A" d="M600 0h150v750h-750v-750h150v300h450v-300zM150 450v150h450v-150h-450z" />
<glyph unicode="B" d="M600 151v149h-450v-149h450zM600 599h-450v-149h450v149zM750 600v-450h-150v-150h-600v750h600v-150h150z" />
<glyph unicode="C" d="M750 150h-600v450h600v150h-750v-750h750v150z" />
<glyph unicode="D" d="M600 600h150v-450h-150v-150h-600v750h600v-150zM150 151h450v448h-450v-448z" />
<glyph unicode="E" d="M750 600v150h-750v-750h750v150h-600v150h600v150h-600v150h600z" />
<glyph unicode="F" d="M750 600v150h-750v-750h150v300h600v150h-600v150h600z" />
<glyph unicode="G" d="M150 600h600v150h-750v-750h750v450h-450v-150h300v-150h-450v450z" />
<glyph unicode="H" d="M600 750v-300h-450v300h-150v-750h150v300h450v-300h150v750h-150z" />
<glyph unicode="I" horiz-adv-x="600" d="M300 600h150v150h-450v-150h150v-450h-150v-150h450v150h-150v450z" />
<glyph unicode="J" d="M300 750v-150h300v-450h150v600h-450zM0 300v-150h150v150h-150zM150 150v-150h450v150h-450z" />
<glyph unicode="K" d="M600 600h-150v-150h150v150zM750 750h-150v-150h150v150zM150 450v300h-150v-750h150v300h300v150h-300zM600 150v150h-150v-150h150zM750 0v150h-150v-150h150z" />
<glyph unicode="L" d="M150 150v600h-150v-750h750v150h-600z" />
<glyph unicode="M" d="M150 600v150h-150v-750h150v450h150v150h-150zM600 750v-150h-150v-150h150v-450h150v750h-150zM300 300h150v150h-150v-150z" />
<glyph unicode="N" d="M150 600v150h-150v-750h150v450h150v150h-150zM600 750v-450h-150v-150h150v-150h150v750h-150zM300 450v-150h150v150h-150z" />
<glyph unicode="O" d="M0 750v-750h750v750h-750zM600 150h-450v450h450v-450z" />
<glyph unicode="P" d="M0 750v-750h150v300h600v450h-750zM600 450h-450v150h450v-150z" />
<glyph unicode="Q" d="M0 750v-750h750v750h-750zM600 300h-150v-150h-300v450h450v-300z" />
<glyph unicode="R" d="M0 750v-750h150v300h300v-300h300v150h-150v150h150v450h-750zM600 450h-450v150h450v-150z" />
<glyph unicode="S" d="M750 600v150h-750v-450h600v-150h-600v-150h750v450h-600v150h600z" />
<glyph unicode="T" d="M0 750v-150h300v-600h150v600h300v150h-750z" />
<glyph unicode="U" d="M600 750v-600h-450v600h-150v-750h750v750h-150z" />
<glyph unicode="V" d="M150 750h-150v-450h150v450zM600 750v-450h150v450h-150zM150 300v-150h150v150h-150zM450 150h150v150h-150v-150zM300 0h150v150h-150v-150z" />
<glyph unicode="W" d="M600 750v-600h150v600h-150zM150 750h-150v-600h150v600zM450 750h-150v-600h150v600zM150 0h150v150h-150v-150zM450 0h150v150h-150v-150z" />
<glyph unicode="X" d="M0 750v-150h150v150h-150zM150 600v-150h150v150h-150zM600 600h-150v-150h150v150zM750 750h-150v-150h150v150zM150 150h150v150h-150v-150zM300 450v-150h150v150h-150zM600 150v150h-150v-150h150zM0 0h150v150h-150v-150zM750 0v150h-150v-150h150z" />
<glyph unicode="Y" d="M150 750h-150v-300h150v300zM600 750v-300h150v300h-150zM150 450v-150h150v150h-150zM450 300h150v150h-150v-150zM300 0h150v300h-150v-300z" />
<glyph unicode="Z" d="M600 600h150v150h-750v-150h450v-150h150v150zM150 300v-150h-150v-150h750v150h-450v150h-150zM450 450h-150v-150h150v150z" />
<glyph unicode="[" horiz-adv-x="450" d="M0 750v-750h300v150h-150v450h150v150h-300z" />
<glyph unicode="\" d="M0 750v-150h150v150h-150zM150 600v-150h150v150h-150zM300 450v-150h150v150h-150zM450 300v-150h150v150h-150zM750 0v150h-150v-150h150z" />
<glyph unicode="]" horiz-adv-x="450" d="M0 750v-150h150v-450h-150v-150h300v750h-300z" />
<glyph unicode="^" horiz-adv-x="600" d="M300 750h-150v-150h150v150zM150 600h-150v-150h150v150zM450 450v150h-150v-150h150z" />
<glyph unicode="_" d="M750 0v150h-750v-150h750z" />
<glyph unicode="`" horiz-adv-x="450" d="M150 750h-150v-150h150v150zM300 450v150h-150v-150h150z" />
<glyph unicode="a" d="M600 0h150v750h-750v-750h150v300h450v-300zM150 450v150h450v-150h-450z" />
<glyph unicode="b" d="M600 151v149h-450v-149h450zM600 599h-450v-149h450v149zM750 600v-450h-150v-150h-600v750h600v-150h150z" />
<glyph unicode="c" d="M750 150h-600v450h600v150h-750v-750h750v150z" />
<glyph unicode="d" d="M600 600h150v-450h-150v-150h-600v750h600v-150zM150 151h450v448h-450v-448z" />
<glyph unicode="e" d="M750 600v150h-750v-750h750v150h-600v150h600v150h-600v150h600z" />
<glyph unicode="f" d="M750 600v150h-750v-750h150v300h600v150h-600v150h600z" />
<glyph unicode="g" d="M150 600h600v150h-750v-750h750v450h-450v-150h300v-150h-450v450z" />
<glyph unicode="h" d="M600 750v-300h-450v300h-150v-750h150v300h450v-300h150v750h-150z" />
<glyph unicode="i" horiz-adv-x="600" d="M300 600h150v150h-450v-150h150v-450h-150v-150h450v150h-150v450z" />
<glyph unicode="j" d="M300 750v-150h300v-450h150v600h-450zM0 300v-150h150v150h-150zM150 150v-150h450v150h-450z" />
<glyph unicode="k" d="M600 600h-150v-150h150v150zM750 750h-150v-150h150v150zM150 450v300h-150v-750h150v300h300v150h-300zM600 150v150h-150v-150h150zM750 0v150h-150v-150h150z" />
<glyph unicode="l" d="M150 150v600h-150v-750h750v150h-600z" />
<glyph unicode="m" d="M150 600v150h-150v-750h150v450h150v150h-150zM600 750v-150h-150v-150h150v-450h150v750h-150zM300 300h150v150h-150v-150z" />
<glyph unicode="n" d="M150 600v150h-150v-750h150v450h150v150h-150zM600 750v-450h-150v-150h150v-150h150v750h-150zM300 450v-150h150v150h-150z" />
<glyph unicode="o" d="M0 750v-750h750v750h-750zM600 150h-450v450h450v-450z" />
<glyph unicode="p" d="M0 750v-750h150v300h600v450h-750zM600 450h-450v150h450v-150z" />
<glyph unicode="q" d="M0 750v-750h750v750h-750zM600 300h-150v-150h-300v450h450v-300z" />
<glyph unicode="r" d="M0 750v-750h150v300h300v-300h300v150h-150v150h150v450h-750zM600 450h-450v150h450v-150z" />
<glyph unicode="s" d="M750 600v150h-750v-450h600v-150h-600v-150h750v450h-600v150h600z" />
<glyph unicode="t" d="M0 750v-150h300v-600h150v600h300v150h-750z" />
<glyph unicode="u" d="M600 750v-600h-450v600h-150v-750h750v750h-150z" />
<glyph unicode="v" d="M150 750h-150v-450h150v450zM600 750v-450h150v450h-150zM150 300v-150h150v150h-150zM450 150h150v150h-150v-150zM300 0h150v150h-150v-150z" />
<glyph unicode="w" d="M600 750v-600h150v600h-150zM150 750h-150v-600h150v600zM450 750h-150v-600h150v600zM150 0h150v150h-150v-150zM450 0h150v150h-150v-150z" />
<glyph unicode="x" d="M0 750v-150h150v150h-150zM150 600v-150h150v150h-150zM600 600h-150v-150h150v150zM750 750h-150v-150h150v150zM150 150h150v150h-150v-150zM300 450v-150h150v150h-150zM600 150v150h-150v-150h150zM0 0h150v150h-150v-150zM750 0v150h-150v-150h150z" />
<glyph unicode="y" d="M150 750h-150v-300h150v300zM600 750v-300h150v300h-150zM150 450v-150h150v150h-150zM450 300h150v150h-150v-150zM300 0h150v300h-150v-300z" />
<glyph unicode="z" d="M600 600h150v150h-750v-150h450v-150h150v150zM150 300v-150h-150v-150h750v150h-450v150h-150zM450 450h-150v-150h150v150z" />
<glyph unicode="{" horiz-adv-x="600" d="M300 600h150v150h-300v-300h150v150zM150 450h-150v-150h150v150zM150 0h300v150h-150v150h-150v-300z" />
<glyph unicode="|" horiz-adv-x="300" d="M0 0h150v750h-150v-750z" />
<glyph unicode="}" horiz-adv-x="600" d="M300 750h-300v-150h150v-150h150v300zM150 150h-150v-150h300v300h-150v-150zM300 300h150v150h-150v-150z" />
<glyph unicode="~" horiz-adv-x="750" d="M150 750v-150h150v150h-150zM0 450h150v150h-150v-150zM450 600h150v150h-150v-150zM300 450h150v150h-150v-150z" />
<glyph unicode="&#x25fc;" horiz-adv-x="750" d="M0 750h750v-750h-750v750z" />
</font>
</defs>
</svg>
